<?xml version="1.0" standalone="no"?>
<!DOCTYPE svg PUBLIC "-//W3C//DTD SVG 20010904//EN"
 "http://www.w3.org/TR/2001/REC-SVG-20010904/DTD/svg10.dtd">
<svg version="1.0" xmlns="http://www.w3.org/2000/svg"
 width="4608.000000pt" height="4608.000000pt" viewBox="0 0 4608.000000 4608.000000"
 preserveAspectRatio="xMidYMid meet">
<metadata>
Created by potrace 1.14, written by Peter Selinger 2001-2017
</metadata>
<g transform="translate(0.000000,4608.000000) scale(0.100000,-0.100000)"
fill="#000000" stroke="none">
<path d="M14171 26230 c-4 -3 -9 -24 -9 -47 -1 -23 -2 -46 -3 -50 -1 -5 -1
-10 0 -13 6 -16 5 -170 -1 -170 -4 0 -5 -6 -3 -12 8 -23 12 -187 4 -182 -4 2
-4 -8 0 -23 4 -16 4 -40 0 -55 -4 -15 -5 -29 -2 -32 8 -8 9 -176 1 -176 -4 0
-5 -6 -3 -12 8 -23 12 -187 4 -182 -4 2 -4 -8 0 -23 4 -16 4 -40 0 -55 -4 -15
-5 -29 -2 -32 8 -8 9 -176 1 -176 -4 0 -5 -6 -3 -12 8 -23 12 -187 4 -182 -4
2 -4 -8 0 -23 4 -16 4 -40 0 -55 -4 -15 -5 -29 -2 -32 9 -9 9 -176 0 -176 -5
0 -5 -5 -2 -10 5 -8 7 -121 4 -230 0 -8 1 -37 2 -65 1 -27 1 -54 -1 -60 -1 -5
-1 -14 0 -20 2 -10 2 -46 0 -150 0 -33 1 -77 3 -98 1 -21 -1 -43 -5 -50 -4 -6
-4 -15 -1 -21 4 -5 6 -28 5 -50 -2 -103 -2 -164 1 -199 1 -21 -1 -43 -5 -50
-4 -6 -4 -15 -1 -21 4 -5 6 -28 5 -50 -2 -103 -2 -164 1 -199 1 -21 -1 -43 -5
-50 -4 -6 -4 -15 -2 -19 8 -13 10 -297 2 -292 -4 2 -3 -8 1 -23 4 -16 4 -40 0
-55 -4 -15 -5 -29 -2 -32 8 -8 9 -176 1 -176 -4 0 -5 -6 -3 -12 8 -23 12 -187
4 -182 -4 2 -4 -8 0 -23 4 -16 4 -40 0 -55 -4 -15 -5 -29 -2 -32 8 -8 9 -176
1 -176 -4 0 -5 -6 -3 -12 8 -23 12 -187 4 -182 -4 2 -4 -8 0 -23 4 -16 4 -40
0 -55 -4 -15 -5 -29 -2 -32 8 -8 9 -176 1 -176 -4 0 -5 -6 -3 -12 8 -23 12
-187 4 -182 -4 2 -4 -8 0 -23 4 -16 4 -40 0 -55 -4 -15 -5 -29 -2 -32 8 -8 9
-176 1 -176 -4 0 -5 -6 -3 -12 8 -23 12 -187 4 -182 -4 2 -4 -8 0 -23 4 -16 4
-40 0 -55 -4 -15 -5 -29 -2 -32 9 -9 9 -176 0 -176 -5 0 -5 -5 -2 -11 9 -14
10 -283 1 -298 -4 -6 -4 -11 1 -11 9 0 8 -143 -1 -158 -3 -5 0 -14 7 -19 18
-15 56 -22 62 -13 3 4 20 4 39 0 19 -4 40 -4 47 1 7 4 17 5 23 2 8 -6 107 -7
132 -2 5 1 12 0 17 -1 17 -4 78 -3 83 3 3 3 12 3 20 0 21 -8 204 -9 204 -1 0
4 13 3 29 -2 15 -4 34 -4 41 0 7 5 23 5 34 0 12 -4 30 -4 42 0 11 5 27 5 34 0
7 -4 26 -4 41 0 16 5 41 5 57 1 15 -4 36 -5 47 -2 20 6 20 15 20 379 0 204 1
372 2 372 1 0 12 -17 24 -37 63 -103 136 -196 229 -292 55 -57 90 -88 207
-181 17 -14 124 -83 153 -98 47 -26 145 -76 150 -77 3 -1 22 -9 43 -18 51 -22
217 -75 259 -82 18 -3 51 -10 73 -15 43 -10 98 -17 185 -25 46 -5 95 -6 263
-5 9 0 23 -1 30 -1 16 -2 135 10 167 16 14 3 45 8 70 11 133 15 484 131 511
167 3 5 8 7 10 6 5 -4 125 62 178 98 20 13 44 29 55 36 166 108 404 353 528
542 69 105 165 284 208 390 66 158 134 378 155 500 2 17 7 39 9 50 2 12 7 48
11 80 4 33 9 71 12 85 11 58 9 463 -3 562 -19 149 -22 167 -34 228 -6 30 -13
66 -16 80 -3 14 -7 33 -10 42 -3 10 -7 30 -10 44 -3 15 -9 35 -15 46 -5 10 -7
18 -3 18 3 0 1 7 -6 15 -7 8 -10 15 -7 15 3 0 -1 16 -9 35 -8 19 -11 35 -8 35
4 0 1 6 -5 13 -6 8 -12 22 -14 33 -2 10 -9 33 -16 49 -7 17 -26 64 -42 105
-37 91 -128 264 -180 342 -22 31 -39 61 -39 67 0 5 -3 11 -8 13 -4 2 -32 36
-62 76 -30 39 -58 72 -62 72 -5 0 -8 5 -8 11 0 13 -186 200 -252 253 -59 47
-239 166 -252 166 -5 0 -17 7 -27 16 -9 8 -23 17 -31 18 -7 2 -47 19 -88 38
-41 19 -106 45 -145 57 -38 13 -77 25 -85 28 -8 3 -24 8 -35 9 -11 2 -40 9
-65 14 -25 6 -66 12 -92 13 -27 1 -48 4 -48 7 0 19 -397 16 -495 -4 -11 -2
-41 -7 -66 -10 -25 -3 -81 -16 -125 -27 -43 -12 -83 -22 -89 -24 -5 -1 -19 -5
-30 -9 -11 -5 -31 -12 -45 -17 -14 -5 -38 -14 -55 -20 -16 -7 -32 -13 -35 -13
-3 -1 -39 -19 -80 -40 -228 -117 -423 -283 -578 -491 -28 -38 -56 -75 -61 -81
-5 -6 -16 -25 -25 -42 -9 -17 -19 -33 -23 -35 -5 -3 -8 551 -8 1231 l0 1236
-548 0 c-302 1 -552 -1 -556 -4z m2379 -2594 c25 -3 55 -8 68 -11 12 -3 32 -7
44 -10 47 -10 126 -39 183 -67 73 -36 185 -107 185 -119 0 -4 8 -10 18 -14 18
-5 98 -82 157 -150 24 -27 100 -137 132 -190 39 -65 104 -213 131 -295 19 -60
24 -81 38 -150 2 -14 7 -31 9 -38 18 -50 25 -328 12 -457 -3 -33 -7 -61 -8
-62 -1 -2 -2 -6 -3 -10 -3 -12 -19 -86 -22 -99 -7 -34 -51 -163 -79 -229 -23
-55 -26 -60 -38 -80 -7 -11 -25 -42 -42 -70 -16 -27 -32 -52 -35 -55 -3 -3
-23 -27 -45 -55 -57 -71 -195 -205 -211 -205 -8 0 -14 -4 -14 -9 0 -21 -218
-144 -305 -171 -22 -7 -47 -15 -55 -18 -153 -52 -418 -60 -585 -17 -82 21
-205 70 -279 112 -34 19 -69 37 -78 40 -10 3 -18 9 -18 14 0 5 -7 9 -15 9 -8
0 -15 5 -15 10 0 6 -5 10 -11 10 -6 0 -27 14 -46 30 -18 17 -38 30 -44 30 -6
0 -7 5 -4 10 3 6 1 10 -6 10 -17 0 -142 133 -182 193 -33 49 -49 80 -94 184
-17 39 -18 79 -17 565 1 288 5 534 10 547 21 69 128 249 214 360 35 46 148
158 190 190 19 14 37 29 40 32 16 19 120 84 199 124 85 43 231 100 231 89 0
-3 8 0 18 5 10 5 45 12 77 15 32 3 60 7 61 9 5 5 187 0 234 -7z"/>
<path d="M36929 26225 c0 -5 -1 -560 -2 -1232 0 -673 -3 -1223 -6 -1223 -4 0
-15 17 -26 37 -11 20 -25 41 -30 47 -6 6 -22 27 -35 46 -90 129 -346 363 -460
422 -14 7 -31 19 -39 26 -20 20 -268 138 -336 161 -65 21 -159 46 -215 56
-181 33 -446 38 -600 10 -14 -2 -41 -6 -60 -9 -19 -2 -57 -10 -85 -16 -27 -7
-57 -13 -65 -15 -8 -2 -16 -4 -17 -5 -2 -2 -6 -3 -10 -4 -5 -1 -14 -5 -20 -9
-7 -5 -13 -6 -13 -4 0 3 -30 -6 -67 -20 -38 -13 -76 -27 -86 -30 -66 -21 -345
-183 -393 -228 -6 -5 -29 -23 -50 -39 -21 -17 -93 -84 -159 -151 -145 -146
-275 -324 -365 -500 -14 -27 -29 -53 -35 -57 -5 -4 -7 -8 -2 -8 4 0 -4 -22
-18 -49 -80 -158 -175 -480 -199 -676 -14 -107 -17 -137 -21 -195 -6 -82 -6
-359 -1 -425 10 -119 35 -300 44 -330 1 -3 2 -6 3 -7 0 -2 2 -11 4 -22 20
-106 60 -243 108 -366 28 -72 140 -292 177 -350 16 -25 33 -52 37 -60 5 -13
37 -58 66 -95 4 -5 27 -35 50 -65 99 -130 234 -262 367 -361 30 -22 63 -47 73
-54 9 -8 17 -11 17 -7 0 4 5 -1 11 -10 5 -10 15 -18 20 -18 6 0 29 -13 52 -29
95 -65 366 -182 502 -217 17 -4 32 -8 35 -9 3 0 23 -5 45 -10 22 -5 42 -9 45
-10 3 -1 30 -5 60 -9 30 -5 64 -10 75 -12 101 -20 470 -19 527 1 7 2 32 7 56
9 119 13 355 92 514 172 67 33 216 121 228 134 3 3 23 18 45 35 64 47 95 75
175 157 89 91 119 128 189 231 28 42 53 77 54 77 2 0 4 -19 4 -42 4 -190 36
-391 66 -410 6 -4 9 -8 4 -8 -4 0 5 -20 20 -44 101 -159 267 -259 488 -294 84
-13 348 -5 430 14 11 2 36 6 55 9 19 2 51 7 70 11 19 3 42 7 50 9 13 2 15 61
18 456 l2 454 -57 14 c-95 22 -152 71 -180 156 -15 46 -17 248 -18 2518 -1
1357 -5 2470 -9 2474 -11 12 -1106 9 -1107 -2z m-994 -2590 c64 -10 74 -11 78
-14 1 -2 13 -4 26 -7 39 -7 203 -75 234 -96 15 -11 27 -17 27 -14 0 10 143
-85 215 -143 178 -142 305 -304 380 -486 9 -22 20 -47 24 -55 5 -8 7 -256 7
-550 l-2 -535 -48 -90 c-27 -49 -52 -92 -56 -95 -4 -3 -12 -14 -18 -26 -25
-47 -158 -188 -227 -239 -22 -16 -42 -32 -45 -35 -34 -37 -242 -140 -347 -174
-152 -47 -274 -59 -445 -43 -318 30 -631 214 -837 492 -82 111 -174 312 -197
429 -17 88 -27 149 -32 196 -7 74 -6 293 2 355 15 108 26 177 32 186 2 3 6 21
9 40 14 77 106 309 127 317 4 2 8 8 8 14 0 6 25 47 55 92 52 78 143 179 216
240 51 43 188 131 239 154 88 40 116 51 140 56 14 3 43 10 65 15 22 6 65 13
95 17 30 3 56 7 57 8 6 5 167 -2 218 -9z"/>
<path d="M39389 26220 c-1 -8 -2 -257 -3 -552 -1 -470 1 -537 14 -540 26 -6
1089 -2 1095 4 5 4 7 484 5 1003 l0 100 -555 0 c-486 0 -555 -2 -556 -15z"/>
<path d="M21569 26106 c-2 -2 -42 -7 -89 -10 -47 -3 -94 -8 -105 -10 -11 -2
-40 -7 -65 -10 -25 -3 -56 -8 -70 -11 -14 -3 -41 -8 -60 -11 -168 -26 -463
-130 -658 -230 -75 -39 -250 -147 -262 -163 -3 -3 -27 -24 -55 -45 -66 -52
-243 -234 -250 -257 -4 -11 -10 -19 -15 -19 -5 0 -18 -16 -30 -35 -12 -20 -27
-41 -33 -48 -13 -13 -21 -28 -72 -117 -65 -117 -137 -312 -161 -440 -34 -183
-39 -234 -38 -450 1 -189 7 -259 29 -360 3 -14 8 -34 10 -46 20 -95 110 -309
146 -348 11 -11 19 -23 19 -28 0 -43 294 -338 338 -338 6 0 12 -4 12 -9 0 -9
27 -27 115 -78 43 -25 262 -133 270 -133 2 0 33 -13 67 -28 35 -16 117 -48
183 -71 66 -24 127 -45 135 -49 8 -3 17 -6 20 -7 3 0 52 -16 110 -34 58 -18
121 -37 140 -43 19 -6 42 -13 50 -16 8 -3 20 -6 26 -7 6 -2 38 -11 70 -21 62
-18 73 -21 102 -28 9 -3 17 -5 17 -6 0 -1 7 -3 15 -5 24 -5 221 -65 270 -82
25 -8 52 -16 60 -18 21 -5 336 -110 390 -130 70 -27 113 -45 142 -61 14 -7 33
-14 42 -14 9 0 16 -4 16 -9 0 -5 10 -11 23 -14 12 -4 52 -27 90 -52 37 -25 70
-45 73 -45 13 0 107 -97 134 -138 109 -164 111 -407 6 -586 -65 -112 -265
-241 -421 -272 -11 -2 -31 -6 -45 -9 -14 -3 -41 -8 -60 -11 -19 -3 -41 -7 -48
-9 -25 -9 -189 -18 -307 -18 -198 1 -349 17 -543 58 -12 2 -32 6 -45 9 -79 15
-422 118 -482 145 -11 5 -58 23 -105 41 -95 36 -366 169 -474 233 -78 45 -241
158 -296 205 l-34 29 -26 -51 c-146 -286 -196 -382 -202 -384 -5 -2 -8 -8 -8
-13 0 -12 -54 -120 -181 -365 -103 -198 -108 -167 46 -266 143 -92 222 -137
375 -213 182 -90 201 -98 360 -159 163 -62 376 -129 510 -161 8 -2 62 -15 120
-29 58 -14 128 -28 155 -32 28 -3 53 -8 56 -10 8 -4 140 -25 254 -39 22 -3 54
-7 71 -9 88 -12 261 -19 439 -20 174 0 240 3 425 20 47 4 108 12 145 18 17 3
47 8 69 12 21 3 46 7 55 9 9 2 50 11 91 20 41 8 113 27 160 42 47 15 90 27 95
29 10 2 83 30 155 61 58 25 155 75 265 137 136 76 362 285 450 416 28 41 53
77 58 78 4 2 7 9 7 16 0 8 9 25 20 38 10 14 17 28 14 30 -2 3 2 11 11 18 8 7
15 17 15 22 0 6 6 24 14 41 56 128 58 136 96 297 19 84 23 107 37 225 9 81 9
330 -1 435 -4 47 -8 91 -8 98 -1 6 -5 12 -10 12 -5 0 -6 5 -3 10 14 22 -59
287 -94 339 -9 14 -15 28 -15 31 3 9 -37 83 -79 145 -149 222 -351 394 -617
525 -173 85 -350 161 -460 196 -25 8 -54 19 -65 23 -44 19 -245 83 -302 96
-10 3 -34 9 -53 14 -196 53 -238 64 -255 66 -11 2 -20 4 -20 5 0 1 -7 3 -15 5
-8 1 -49 12 -90 24 -41 12 -91 26 -110 31 -19 6 -109 33 -200 60 -91 28 -172
52 -180 55 -115 33 -351 133 -370 156 -3 3 -15 11 -27 18 -49 25 -142 112
-176 163 -55 84 -80 173 -80 293 0 55 2 116 5 135 10 61 47 166 68 193 11 14
20 29 20 35 0 15 102 115 150 149 52 35 171 93 192 93 8 0 18 3 22 7 3 4 12 8
19 9 7 1 41 9 77 17 62 15 128 25 215 33 59 5 285 5 325 0 19 -3 55 -7 80 -10
60 -7 211 -35 230 -43 8 -3 20 -7 25 -8 42 -10 210 -58 246 -71 24 -8 51 -17
59 -19 20 -5 147 -52 185 -70 37 -16 103 -43 113 -46 43 -12 324 -173 330
-190 2 -5 9 -9 15 -9 7 0 25 -11 41 -25 16 -14 32 -25 36 -25 3 0 20 -14 37
-31 l32 -30 14 23 c13 21 53 93 130 238 16 30 37 69 47 85 9 17 41 75 70 130
29 55 56 105 60 110 4 6 29 51 55 100 51 95 86 160 117 212 l19 32 -58 39
c-77 52 -303 183 -303 175 0 -3 -6 0 -14 6 -36 30 -409 201 -471 216 -9 2 -22
6 -62 22 -10 3 -20 7 -23 8 -3 1 -36 11 -75 24 -38 12 -77 24 -85 26 -8 1 -40
10 -70 19 -30 9 -59 17 -65 17 -5 1 -21 6 -35 11 -14 5 -41 12 -60 14 -19 3
-48 8 -65 13 -46 14 -231 44 -350 56 -58 7 -511 15 -516 11z"/>
<path d="M0 26064 c0 -2 6 -18 14 -36 26 -60 43 -102 90 -223 26 -66 51 -129
56 -140 5 -11 32 -78 60 -150 28 -71 55 -139 60 -150 4 -11 29 -74 55 -140 26
-66 53 -133 61 -150 7 -16 130 -327 274 -690 144 -363 271 -680 282 -705 11
-25 21 -49 22 -55 2 -5 10 -27 19 -49 9 -21 17 -40 17 -42 0 -1 5 -15 12 -31
6 -15 12 -30 13 -33 1 -3 7 -18 14 -35 7 -16 41 -104 77 -195 37 -91 75 -184
85 -207 10 -24 19 -49 19 -56 0 -7 4 -17 8 -23 7 -7 32 -69 82 -199 4 -11 12
-32 19 -47 6 -16 15 -38 20 -50 4 -13 13 -34 19 -48 15 -33 54 -132 57 -145 1
-5 12 -32 23 -58 12 -27 22 -51 22 -54 0 -3 6 -19 14 -36 7 -18 23 -57 35 -87
12 -30 26 -64 31 -75 5 -11 70 -175 145 -365 75 -190 142 -358 149 -375 7 -16
41 -102 76 -190 34 -88 68 -173 75 -190 37 -87 115 -283 115 -289 0 -4 8 -26
18 -49 11 -23 31 -73 47 -112 15 -38 34 -84 41 -102 8 -17 14 -33 14 -36 0 -2
8 -22 17 -43 9 -22 17 -41 18 -44 1 -3 7 -18 13 -33 7 -16 12 -31 12 -33 0 -6
38 -94 49 -114 5 -8 22 -15 40 -15 17 0 31 -2 31 -5 0 -3 47 -5 105 -5 58 0
105 3 105 7 0 4 13 3 29 -2 15 -4 34 -4 41 0 7 5 23 5 34 0 12 -4 30 -4 42 0
11 5 27 5 34 0 7 -4 24 -4 39 0 14 4 35 5 46 3 33 -6 121 -7 131 -1 5 3 18 2
29 -2 11 -4 32 -4 48 1 15 4 27 5 27 1 0 -7 209 -7 214 0 3 3 98 229 171 408
24 58 51 123 61 145 10 22 19 45 20 50 5 18 203 490 214 507 5 10 10 22 10 28
0 5 14 39 30 75 17 36 30 68 30 71 0 3 11 29 23 57 13 29 32 75 42 102 10 28
22 55 26 60 3 6 30 69 59 140 28 72 58 144 65 160 28 63 107 250 109 260 2 6
8 21 14 35 9 21 41 96 104 248 6 15 12 29 13 32 1 3 7 19 14 35 6 17 14 36 17
44 7 22 17 5 63 -109 24 -58 47 -113 51 -122 5 -9 32 -72 60 -140 28 -68 55
-131 60 -140 6 -10 10 -25 10 -33 0 -8 5 -15 10 -15 6 0 10 -6 10 -14 0 -8 33
-92 73 -188 41 -95 87 -204 102 -243 16 -38 35 -80 43 -92 8 -13 12 -23 9 -23
-3 0 8 -30 24 -67 33 -75 45 -102 58 -135 13 -33 36 -86 60 -140 12 -26 21
-50 21 -53 0 -3 10 -27 22 -53 12 -26 23 -49 23 -52 3 -8 17 -42 46 -112 16
-36 29 -69 29 -72 0 -3 11 -29 24 -58 14 -30 34 -76 45 -104 11 -29 29 -71 39
-95 11 -24 37 -84 57 -134 21 -49 46 -108 56 -130 9 -23 20 -52 24 -65 12 -49
39 -73 84 -74 22 0 41 2 41 6 0 4 13 3 29 -2 15 -4 34 -4 41 0 7 5 23 5 34 0
12 -4 30 -4 42 0 11 5 27 5 34 0 7 -4 24 -4 39 0 14 4 35 5 46 3 17 -3 74 -4
135 -2 8 0 29 0 45 0 17 -1 39 -1 50 -1 11 0 45 0 76 -1 31 0 60 1 65 2 5 1
12 0 17 -1 4 -1 23 -2 42 -2 19 0 38 1 43 2 4 1 12 1 17 0 11 -2 72 -3 115 -1
19 1 29 10 38 34 8 17 18 41 23 52 11 24 32 77 34 88 2 4 4 9 5 12 1 3 3 8 4
13 1 4 12 29 24 56 12 27 22 52 22 56 0 4 7 21 16 39 9 17 17 37 18 44 3 13
21 61 36 92 24 53 50 118 50 126 0 5 11 32 24 61 23 50 70 167 72 178 0 3 6
16 12 30 6 14 49 120 95 235 46 116 87 219 92 230 4 11 9 25 11 30 2 8 50 128
89 220 5 11 9 22 10 25 1 3 5 14 10 25 5 11 44 110 87 220 44 110 86 214 93
230 7 17 38 95 69 175 59 149 63 160 89 220 20 48 121 304 122 310 1 3 9 23
19 45 9 22 46 114 82 205 36 91 69 174 74 185 5 11 46 112 91 225 44 113 87
219 94 235 17 38 279 698 280 705 1 3 9 23 19 45 9 22 28 69 42 105 14 36 34
85 44 110 58 138 79 190 73 190 -3 0 -1 6 4 13 6 6 49 109 96 227 47 118 91
229 98 245 7 17 13 35 15 40 2 8 50 127 89 220 5 11 9 22 10 25 1 3 7 18 13
33 7 16 12 30 12 31 0 2 7 20 15 40 8 20 15 37 14 38 0 2 13 33 30 71 17 37
29 68 28 69 -3 2 -1247 5 -1247 3 0 -2 -53 -147 -142 -390 -17 -44 -31 -84
-32 -90 -2 -5 -6 -17 -9 -25 -19 -43 -69 -187 -70 -197 0 -7 -4 -13 -9 -13 -4
0 -8 -6 -8 -13 0 -13 -53 -166 -85 -247 -15 -36 -34 -89 -150 -410 -135 -371
-219 -602 -255 -700 -18 -47 -51 -139 -75 -205 -24 -66 -64 -176 -90 -245 -26
-69 -48 -129 -49 -135 -5 -21 -19 -61 -31 -90 -19 -45 -45 -115 -61 -165 -8
-25 -19 -54 -24 -65 -6 -11 -30 -76 -54 -145 -24 -69 -56 -156 -71 -195 -14
-38 -31 -86 -37 -105 -5 -19 -15 -41 -20 -47 -6 -7 -7 -13 -3 -13 4 0 2 -6 -4
-13 -6 -8 -12 -22 -14 -33 -1 -10 -5 -23 -8 -29 -4 -5 -12 -28 -19 -50 -7 -22
-18 -53 -26 -70 -14 -32 -253 -690 -287 -790 -11 -33 -26 -68 -33 -78 -11 -16
-14 -12 -30 35 -9 29 -28 76 -40 105 -13 29 -24 55 -24 58 0 3 -7 22 -15 43
-9 20 -27 66 -41 102 -14 36 -34 85 -44 110 -26 59 -291 722 -294 735 -2 6 -8
21 -13 35 -44 103 -123 309 -123 319 0 6 -4 11 -8 11 -5 0 -9 6 -9 13 0 11
-42 119 -80 206 -29 65 -33 91 -18 124 8 18 35 88 60 157 26 69 57 152 69 185
13 33 38 98 55 145 18 47 36 94 41 105 4 11 38 101 75 200 37 99 71 189 75
200 4 11 25 65 45 120 21 55 41 109 46 120 5 11 18 47 29 80 12 33 26 69 31
80 12 27 32 78 35 90 1 6 16 46 34 90 17 44 33 87 35 95 1 9 15 45 30 80 15
36 28 70 29 75 2 6 7 19 11 30 8 20 54 143 119 315 19 52 41 109 47 125 7 17
13 32 14 35 1 3 4 12 8 20 3 8 13 38 23 65 10 28 21 55 24 60 4 6 10 22 13 36
4 14 14 43 23 65 36 82 89 74 -502 72 l-527 -3 -18 -50 c-10 -27 -39 -111 -64
-185 -26 -74 -49 -142 -52 -150 -22 -60 -85 -238 -88 -250 -2 -8 -12 -39 -24
-67 -11 -29 -18 -53 -15 -53 4 0 2 -6 -3 -12 -6 -7 -31 -76 -58 -153 -26 -77
-50 -147 -53 -155 -3 -8 -6 -17 -7 -20 -1 -3 -5 -14 -9 -25 -26 -69 -31 -81
-33 -90 -1 -5 -25 -75 -53 -155 -28 -80 -58 -165 -66 -190 -8 -25 -18 -52 -21
-60 -3 -8 -7 -19 -9 -25 -1 -5 -21 -62 -44 -125 -23 -63 -46 -130 -51 -148 -6
-19 -12 -32 -14 -30 -1 1 -31 86 -65 188 -61 183 -74 219 -91 252 -5 10 -9 26
-9 36 0 10 -3 22 -7 26 -5 4 -8 11 -8 14 -1 11 -25 85 -35 107 -5 11 -37 101
-70 200 -34 99 -75 218 -91 265 -17 47 -31 90 -33 95 -1 6 -8 20 -14 33 -7 12
-11 22 -8 22 2 0 -16 57 -41 128 -24 70 -46 134 -48 142 -2 8 -15 45 -29 83
-14 37 -22 67 -19 67 3 0 1 6 -4 13 -11 13 -45 109 -50 141 -2 11 -7 24 -12
30 -4 6 -14 32 -22 59 l-13 47 -533 0 c-293 0 -533 -2 -533 -5 0 -5 28 -81 41
-110 5 -11 18 -47 29 -80 12 -33 25 -69 30 -80 4 -11 18 -47 30 -80 13 -33 26
-69 31 -80 11 -25 149 -397 153 -410 2 -5 9 -23 15 -40 7 -16 24 -61 37 -100
14 -38 29 -79 34 -90 4 -11 18 -47 30 -80 12 -33 26 -69 30 -80 9 -20 29 -75
80 -215 15 -42 39 -105 53 -140 13 -36 41 -110 62 -165 20 -55 41 -109 45
-120 4 -11 18 -47 30 -80 12 -33 26 -69 30 -80 4 -11 18 -47 30 -80 12 -33 26
-69 30 -80 5 -11 32 -83 60 -160 28 -77 67 -180 86 -230 39 -103 40 -110 18
-154 -9 -17 -17 -37 -18 -44 -2 -7 -8 -25 -15 -42 -23 -57 -59 -150 -105 -270
-26 -66 -51 -128 -56 -137 -6 -10 -10 -23 -10 -28 0 -6 -8 -30 -18 -53 -11
-23 -28 -67 -40 -97 -24 -62 -113 -291 -267 -685 -59 -148 -107 -274 -109
-280 -1 -5 -9 -26 -18 -45 -8 -19 -23 -59 -33 -88 -9 -30 -21 -50 -25 -45 -4
4 -37 91 -74 193 -37 102 -70 192 -73 200 -3 8 -7 17 -8 20 -1 3 -5 14 -9 25
-25 68 -163 447 -213 585 -25 69 -49 134 -54 145 -5 11 -40 108 -79 215 -39
107 -74 204 -79 215 -5 11 -32 85 -61 165 -28 80 -55 154 -60 165 -5 11 -18
47 -30 80 -11 33 -23 67 -27 75 -3 8 -7 20 -8 25 -2 6 -15 42 -30 80 -14 39
-33 90 -41 115 -8 25 -19 54 -24 65 -6 11 -35 90 -66 175 -80 219 -89 245
-124 340 -17 47 -49 132 -69 190 -21 58 -54 148 -74 200 -19 52 -85 232 -146
400 -61 168 -115 314 -120 325 -5 11 -14 34 -19 50 -18 51 -93 259 -102 280
-4 11 -20 54 -35 95 -15 41 -33 91 -40 110 l-13 35 -616 1 c-339 0 -616 -1
-616 -2z"/>
<path d="M25193 25927 c-3 -5 -5 -323 -5 -708 l0 -699 -27 2 c-14 1 -32 -1
-39 -6 -7 -4 -12 -2 -12 4 0 7 -6 8 -19 1 -10 -6 -21 -8 -23 -5 -6 5 -60 6
-98 1 -14 -2 -37 0 -52 4 -15 4 -30 3 -34 -2 -3 -5 -10 -6 -16 -3 -9 6 -78 6
-213 1 l-40 -2 -1 -415 c0 -228 1 -420 3 -426 3 -8 84 -11 279 -10 173 1 279
-3 284 -9 4 -5 8 -593 8 -1305 1 -1185 3 -1343 17 -1435 29 -176 91 -332 172
-435 158 -198 376 -318 680 -375 125 -23 389 -23 541 -1 18 3 52 8 75 11 23 3
58 10 77 15 19 5 49 11 65 14 107 18 224 49 343 90 91 32 383 144 389 149 1 2
-7 41 -18 88 -11 46 -22 91 -24 99 -2 8 -4 17 -6 20 -1 3 -3 10 -3 15 -1 6 -7
28 -13 50 -11 36 -37 138 -48 188 -2 10 -7 27 -10 37 -3 10 -8 28 -10 39 -3
12 -7 29 -10 39 -10 38 -26 98 -29 112 -2 8 -9 35 -16 60 -7 25 -13 52 -15 60
-9 45 -18 70 -25 70 -5 0 -46 -14 -92 -31 -82 -30 -94 -34 -113 -39 -5 -1 -19
-7 -30 -13 -11 -6 -24 -12 -30 -14 -5 -1 -35 -9 -65 -17 -95 -26 -112 -28
-230 -32 -161 -5 -245 20 -336 100 -39 34 -89 116 -100 167 -3 13 -8 35 -11
49 -10 48 -10 2221 0 2227 6 3 211 7 456 7 l446 1 2 410 c2 410 0 461 -16 450
-5 -3 -45 -5 -88 -5 -99 1 -102 1 -200 0 -45 -1 -87 1 -92 4 -5 4 -12 2 -16
-3 -3 -6 -14 -7 -25 -3 -10 4 -54 5 -97 2 -43 -3 -102 -3 -130 0 -29 3 -53 3
-53 0 0 -7 -182 -1 -189 6 -3 3 -7 312 -8 687 0 375 -2 691 -2 702 -1 20 -8
20 -552 20 -303 0 -553 -4 -556 -8z"/>
<path d="M10857 24594 c-1 -1 -42 -5 -92 -8 -123 -8 -174 -13 -215 -20 -19 -4
-48 -9 -65 -12 -16 -3 -41 -7 -55 -8 -42 -5 -251 -64 -325 -91 -38 -15 -83
-31 -100 -37 -54 -21 -220 -105 -278 -142 -31 -20 -61 -36 -67 -36 -5 0 -10
-4 -10 -10 0 -5 -7 -10 -15 -10 -8 0 -15 -4 -15 -8 0 -4 -15 -16 -32 -27 -54
-31 -230 -176 -290 -240 -92 -96 -238 -269 -238 -281 0 -4 -10 -21 -23 -38
-36 -48 -176 -291 -168 -291 2 0 -8 -25 -22 -55 -20 -46 -47 -117 -52 -140 -1
-3 -7 -18 -14 -35 -12 -28 -46 -147 -57 -197 -3 -13 -7 -32 -9 -43 -28 -127
-40 -211 -51 -355 -12 -152 -7 -362 11 -500 8 -61 18 -120 31 -185 17 -84 83
-316 94 -330 4 -5 13 -26 19 -46 16 -48 125 -261 161 -315 17 -23 30 -45 30
-48 0 -7 60 -94 80 -116 8 -9 22 -27 30 -39 33 -50 154 -185 230 -257 170
-160 401 -311 630 -412 63 -27 181 -71 205 -75 11 -2 27 -7 35 -10 40 -15 191
-50 267 -63 15 -2 42 -6 58 -9 66 -10 130 -17 184 -20 31 -2 58 -4 61 -5 15
-5 280 -1 289 5 6 3 11 1 11 -5 0 -6 4 -9 9 -5 6 3 38 8 73 10 131 9 333 37
333 45 0 2 17 5 65 13 14 2 35 7 47 11 12 4 30 9 40 11 120 27 284 90 428 164
331 171 612 418 790 696 53 84 108 185 103 190 -2 2 -21 8 -43 15 -70 21 -275
78 -305 85 -8 2 -58 16 -110 31 -52 14 -102 28 -110 29 -8 2 -15 4 -15 6 0 1
-9 3 -20 5 -11 1 -91 23 -178 49 -87 25 -162 43 -167 40 -4 -3 -20 -28 -35
-57 -50 -95 -145 -208 -217 -259 -18 -13 -39 -29 -46 -36 -35 -34 -265 -151
-332 -169 -185 -49 -215 -53 -386 -58 -147 -4 -296 18 -429 64 -82 28 -195 81
-195 91 0 5 -5 9 -10 9 -20 0 -165 115 -221 175 -70 75 -152 192 -187 267 -56
122 -85 198 -76 198 2 0 0 8 -5 18 -6 11 -12 31 -15 46 -3 14 -7 34 -10 44 -8
26 -15 71 -21 127 l-5 50 1685 -1 c1246 -1 1685 1 1686 10 0 14 8 105 14 166
11 114 5 383 -11 485 -3 22 -8 56 -9 75 -3 27 -17 103 -24 128 0 1 -3 14 -6
30 -12 57 -59 220 -75 257 -4 11 -18 47 -31 80 -26 71 -143 308 -170 347 -11
14 -19 31 -19 37 0 6 -4 11 -8 11 -5 0 -13 10 -19 23 -14 30 -134 190 -150
200 -7 4 -13 12 -13 17 0 20 -245 252 -306 290 -13 8 -24 18 -24 22 0 5 -6 8
-14 8 -8 0 -16 4 -18 8 -4 11 -188 133 -188 125 0 -3 -8 1 -17 9 -17 15 -247
127 -273 133 -3 0 -41 13 -85 28 -69 23 -117 36 -270 73 -16 4 -41 8 -55 10
-14 1 -36 5 -50 8 -30 6 -108 14 -212 22 -74 6 -317 12 -321 8z m263 -818 c73
-13 137 -29 195 -48 76 -25 249 -110 265 -129 3 -3 15 -11 26 -17 65 -34 191
-166 265 -276 89 -133 157 -281 185 -402 15 -70 33 -171 34 -191 l0 -23 -1140
0 -1140 0 5 23 c2 12 7 40 10 62 12 82 17 109 26 132 5 13 6 23 4 23 -4 0 34
113 58 170 6 14 11 27 12 30 2 12 87 164 94 170 3 3 26 31 50 64 46 62 124
141 181 184 19 15 37 30 40 33 11 15 182 107 227 123 26 9 55 21 64 26 16 8
188 46 239 52 40 5 262 1 300 -6z"/>
<path d="M43677 24594 c-1 -1 -54 -5 -117 -8 -63 -4 -124 -9 -135 -11 -11 -3
-38 -7 -60 -10 -78 -11 -153 -25 -190 -36 -16 -4 -45 -11 -64 -14 -19 -3 -43
-11 -55 -17 -11 -6 -23 -11 -26 -11 -6 1 -12 -1 -88 -26 -34 -12 -84 -31 -110
-42 -90 -39 -112 -49 -117 -49 -15 0 -283 -154 -295 -169 -3 -3 -25 -20 -50
-36 -25 -16 -47 -32 -50 -35 -3 -3 -27 -23 -55 -45 -27 -22 -90 -81 -140 -132
-110 -113 -120 -124 -170 -193 -22 -30 -42 -57 -45 -60 -8 -7 -95 -142 -103
-160 -4 -8 -16 -28 -27 -45 -11 -16 -24 -39 -29 -51 -5 -11 -27 -57 -50 -102
-22 -45 -37 -82 -34 -82 3 0 1 -6 -5 -13 -12 -15 -99 -269 -107 -315 -3 -17
-10 -44 -16 -59 -6 -15 -10 -29 -9 -31 2 -2 -9 -69 -16 -107 -3 -11 -7 -38 -9
-60 -3 -22 -7 -62 -11 -90 -10 -76 -12 -380 -3 -465 13 -126 19 -174 24 -200
4 -14 8 -36 11 -50 22 -108 64 -265 87 -320 5 -14 11 -32 13 -40 2 -8 8 -24
13 -37 6 -13 15 -33 20 -45 55 -141 234 -458 281 -498 4 -3 13 -14 21 -26 51
-75 236 -269 309 -323 19 -14 44 -34 55 -44 11 -10 32 -26 48 -35 15 -9 27
-20 27 -24 0 -4 4 -8 9 -8 5 0 44 -22 85 -50 42 -27 77 -50 79 -50 2 0 35 -17
73 -38 166 -91 423 -180 603 -208 18 -3 43 -8 55 -10 11 -2 41 -7 66 -10 25
-3 57 -7 72 -10 129 -21 516 -20 663 2 22 3 56 7 75 9 19 1 44 5 55 8 11 3 36
8 55 11 143 21 483 131 531 172 8 8 20 14 26 14 14 0 203 108 220 126 7 7 22
16 33 19 11 3 20 11 20 16 0 5 7 9 15 9 8 0 15 5 15 10 0 6 7 10 15 10 8 0 15
4 15 8 0 4 24 26 53 47 58 45 255 240 303 301 129 165 200 276 270 421 39 81
110 254 118 288 2 6 6 17 9 25 3 8 11 35 18 60 7 25 14 50 15 55 24 76 56 248
71 370 9 76 8 465 -1 525 -4 25 -9 60 -11 79 -6 42 -16 113 -19 126 -48 201
-108 399 -127 420 -5 5 -9 14 -9 21 0 6 -12 38 -27 70 -15 33 -28 65 -29 72
-2 8 -9 21 -16 30 -8 10 -29 47 -48 85 -19 37 -38 67 -42 67 -5 0 -8 5 -8 11
0 12 -60 103 -72 107 -4 2 -8 8 -8 13 0 29 -332 389 -359 389 -5 0 -19 10 -32
23 -51 50 -258 182 -359 229 -34 16 -173 79 -215 98 -25 11 -204 69 -233 75
-29 7 -48 11 -102 25 -25 6 -58 13 -75 15 -16 2 -41 6 -55 8 -88 18 -499 43
-513 31z m240 -958 c34 -3 100 -17 148 -31 88 -26 237 -91 243 -106 2 -5 8 -9
14 -9 29 0 197 -145 279 -240 43 -51 127 -187 167 -270 101 -213 142 -409 137
-660 -2 -85 -5 -171 -9 -190 -3 -19 -8 -53 -11 -75 -8 -49 -53 -221 -65 -244
-4 -9 -20 -44 -35 -79 -34 -82 -89 -176 -145 -254 -50 -68 -167 -190 -219
-228 -19 -14 -39 -29 -45 -35 -20 -18 -110 -70 -146 -85 -19 -7 -43 -20 -52
-28 -10 -8 -18 -12 -18 -8 0 4 -9 2 -21 -4 -11 -6 -28 -13 -37 -15 -9 -2 -44
-11 -77 -20 -98 -26 -258 -35 -380 -22 -109 13 -133 17 -173 31 -22 8 -43 12
-46 9 -3 -4 -6 -1 -6 6 0 7 -4 10 -8 7 -21 -13 -255 117 -334 186 -14 13 -35
30 -45 39 -39 34 -121 128 -115 133 3 3 1 6 -5 6 -13 0 -102 136 -140 215 -52
108 -106 276 -118 370 -4 28 -9 61 -12 75 -8 33 -12 402 -5 414 3 5 7 28 8 51
6 76 61 269 106 370 52 117 120 226 192 310 73 86 125 133 216 197 97 68 235
136 315 155 6 1 28 7 50 12 22 5 67 13 100 16 33 4 61 8 63 10 4 4 165 -2 229
-9z"/>
<path d="M28445 24522 c-3 -3 -30 -4 -61 -3 -47 1 -55 -1 -46 -12 7 -8 10 -16
7 -18 -3 -4 -7 -531 -4 -629 0 -8 1 -224 0 -480 0 -256 0 -472 0 -480 1 -8 0
-224 -1 -480 -1 -602 6 -955 23 -1035 4 -16 9 -50 12 -75 6 -53 13 -96 21
-130 4 -14 8 -34 10 -45 2 -11 10 -45 19 -75 9 -30 18 -64 20 -75 6 -26 30
-92 56 -150 7 -16 13 -32 14 -35 3 -16 68 -136 100 -186 71 -111 192 -241 280
-302 22 -15 42 -29 45 -32 22 -22 260 -136 260 -124 0 2 14 -3 31 -11 17 -9
33 -14 36 -11 3 3 13 1 23 -4 9 -5 32 -12 51 -15 19 -3 41 -8 49 -10 57 -15
229 -28 370 -27 63 0 115 1 115 2 0 1 18 3 40 5 173 16 312 41 432 76 77 23
77 23 118 34 17 4 35 11 40 15 6 3 33 15 60 24 62 22 239 108 243 119 2 4 8 7
14 7 13 0 201 129 258 177 118 100 271 267 350 383 39 58 39 58 41 15 1 -22 3
-53 4 -70 2 -16 6 -77 10 -135 13 -203 55 -314 164 -432 76 -83 243 -160 372
-172 14 -2 30 -6 36 -9 11 -7 286 -2 323 6 14 3 57 8 95 12 65 6 100 10 165
18 14 2 30 6 35 9 10 6 13 893 4 902 -2 2 -21 7 -42 10 -73 11 -155 64 -182
116 -38 76 -38 81 -39 1730 -1 1513 -2 1595 -18 1594 -10 -1 -18 3 -18 9 0 8
-3 8 -10 1 -7 -7 -29 -8 -55 -4 -25 4 -47 5 -50 2 -2 -3 -37 -4 -77 -3 -40 1
-80 2 -88 2 -21 0 -323 0 -335 1 -8 0 -179 -1 -270 -1 -11 0 -55 -1 -97 -2
-43 0 -82 2 -87 5 -6 4 -9 -491 -9 -1353 l-1 -1359 -25 -48 c-64 -122 -143
-244 -157 -244 -5 0 -9 -5 -9 -11 0 -17 -115 -137 -205 -214 -44 -38 -192
-139 -205 -140 -3 -1 -23 -10 -45 -22 -37 -19 -151 -61 -185 -68 -8 -2 -15 -4
-15 -5 0 -4 -86 -20 -150 -26 -118 -13 -179 -11 -310 11 -108 18 -250 101
-323 189 -43 53 -104 150 -110 177 -2 7 -10 28 -17 44 -23 50 -45 125 -51 167
-2 23 -6 44 -8 47 -5 7 -11 53 -22 151 -4 36 -8 655 -10 1375 -1 721 -2 1313
-3 1316 -1 8 -59 17 -66 11 -2 -3 -37 -4 -77 -3 -70 2 -82 2 -110 0 -7 0 -39
0 -70 1 -31 1 -60 0 -65 -3 -4 -2 -17 -1 -28 3 -11 4 -30 4 -42 -1 -12 -5 -25
-4 -28 0 -3 5 -20 6 -38 2 -18 -5 -41 -5 -52 -1 -11 4 -29 4 -40 0 -21 -7 -68
-5 -91 4 -7 3 -16 1 -19 -4 -3 -5 -14 -6 -25 -2 -10 4 -55 5 -98 2 -44 -3 -96
-2 -116 1 -20 3 -38 4 -41 1z"/>
<path d="M39486 24523 c-3 -3 -27 -5 -53 -4 l-48 1 0 -2176 c0 -2160 1 -2177
20 -2184 11 -4 30 -4 41 1 12 4 25 5 28 2 3 -4 30 -6 59 -4 28 1 59 2 67 1 8
0 26 0 40 1 14 1 34 1 45 1 28 -1 127 -2 145 -1 8 0 29 0 45 0 17 -1 39 -1 50
-1 11 0 45 0 76 -1 31 0 60 1 65 2 5 1 12 0 17 -1 4 -1 23 -2 42 -2 19 0 38 1
43 2 4 1 12 1 17 0 6 -1 52 -1 103 -1 50 1 99 1 107 1 23 0 68 1 88 1 14 0 17
10 17 52 0 29 1 1010 3 2180 l2 2128 -22 -4 c-13 -2 -23 0 -23 6 0 5 -6 5 -13
-2 -8 -6 -17 -8 -20 -5 -6 6 -50 6 -97 1 -14 -2 -37 0 -52 4 -15 4 -30 4 -33
-1 -3 -5 -14 -6 -25 -2 -10 4 -54 5 -97 2 -43 -3 -100 -3 -126 0 -26 4 -50 4
-52 2 -2 -3 -37 -4 -77 -3 -40 1 -80 2 -88 2 -8 0 -73 -1 -143 -1 -70 0 -131
1 -136 4 -4 3 -11 3 -15 -1z"/>
</g>
</svg>
